<?xml version="1.0" encoding="UTF-8"?><svg id="Capa_1" xmlns="http://www.w3.org/2000/svg" viewBox="-250 -250 1000 1000"><defs><style>.cls-1{fill:#0b0b0b;stroke-width:0px;}</style></defs><path class="cls-1" d="m355.124,500.001h-202.6c-43.283,0-78.371-35.089-78.371-78.372v-67.124h68.753l1.284,57.949c0,9.671,7.838,17.51,17.509,17.51h184.25c9.671,0,17.509-7.839,17.509-17.51v-57.949h70.037v67.124c0,43.283-35.088,78.372-78.371,78.372Z"/><path class="cls-1" d="m433.495,145.497h-70.037v-57.95c0-9.671-7.838-17.509-17.509-17.509h-184.25c-9.671,0-17.509,7.838-17.509,17.509v57.95h-70.037v-67.119C74.153,35.09,109.241.001,152.53.001h202.594C398.407.001,433.501,35.09,433.501,78.379l-.006,67.119Z"/><path class="cls-1" d="m108.961,315.757c-13.097,0-25.411-5.101-34.662-14.364l-59.934-59.934C4.437,231.549-.711,218.119.083,203.972c.706-12.619,6.782-24.344,15.723-33.28l58.498-58.492c9.916-9.922,23.351-15.07,37.499-14.276,12.612.706,24.326,6.782,33.261,15.717l57.88,57.88c19.488,19.482,19.488,51.075,0,70.562l-59.321,59.322c-9.251,9.256-21.56,14.357-34.657,14.357l-.006-.005Zm-37.014-100.002l28.061,28.062c4.944,4.943,12.963,4.943,17.906,0l28.062-28.062c4.943-4.943,4.943-12.962,0-17.906l-28.062-28.061c-4.943-4.944-12.962-4.944-17.906,0l-28.061,28.061c-4.944,4.944-4.944,12.963,0,17.906Z"/><path class="cls-1" d="m398.132,403.968c-13.097,0-25.412-5.101-34.662-14.363l-59.935-59.934c-9.927-9.916-15.075-23.346-14.281-37.493.706-12.619,6.782-24.344,15.723-33.28l58.498-58.492c9.917-9.922,23.352-15.07,37.499-14.276,12.613.706,24.327,6.782,33.262,15.717l57.88,57.88c19.488,19.482,19.488,51.075,0,70.562l-59.321,59.322c-9.251,9.256-21.56,14.357-34.657,14.357h-.006Zm-37.014-100.001l28.061,28.062c4.944,4.943,12.963,4.943,17.906,0l28.062-28.062c4.943-4.943,4.943-12.962,0-17.906l-28.062-28.061c-4.943-4.944-12.962-4.944-17.906,0l-28.061,28.061c-4.944,4.944-4.944,12.963,0,17.906Z"/></svg>
